<svg width="720" height="268" viewBox="0 0 720 268" fill="none" xmlns="http://www.w3.org/2000/svg">
<path d="M138.6 37.2C142.867 37.2 147.533 38.2 152.6 40.2C157.267 42.0667 159.6 45.6 159.6 50.8V188.6C159.6 195 155.667 198.2 147.8 198.2C139.933 198.2 136 195 136 188.6V85.8L130.2 85.2L122.2 111.2L98.2 191.2C96.7333 195.867 93.1333 198.133 87.4 198C84.8667 197.867 82.6667 197.2 80.8 196C78.9333 194.8 77.6667 193.067 77 190.8L62.6 144.2C59.6667 135 56.7333 125.667 53.8 116.2C50.8667 106.6 47.6667 96 44.2 84.4L38.4 85.2V188.6C38.4 195 34.4667 198.2 26.6 198.2C18.7333 198.2 14.8 195 14.8 188.6V50.8C14.8 45.7333 17.1333 42.2 21.8 40.2C26.7333 38.2 31.4667 37.2667 36 37.4C38 37.4 40.0667 37.6667 42.2 38.2C44.3333 38.7333 46.3333 39.5333 48.2 40.6C50.0667 41.5333 51.7333 42.8 53.2 44.4C54.6667 45.8667 55.8 47.6 56.6 49.6L88 156.6C90.2667 148.733 92.6667 140.2 95.2 131C97.7333 121.8 100.333 112.467 103 103C105.667 93.5333 108.267 84.2 110.8 75C113.467 65.6667 115.933 57 118.2 49C119 47.1333 120.133 45.4667 121.6 44C123.067 42.5333 124.733 41.3333 126.6 40.4C128.467 39.3333 130.4 38.5333 132.4 38C134.533 37.4667 136.6 37.2 138.6 37.2ZM274.275 165.2C274.275 170.533 273.342 175.267 271.475 179.4C269.608 183.533 266.942 186.867 263.475 189.4H263.675C260.342 191.667 256.808 193.533 253.075 195C249.342 196.333 245.742 197 242.275 197H210.075C206.742 197 203.142 196.333 199.275 195C195.542 193.533 192.008 191.667 188.675 189.4H188.875C185.408 186.867 182.742 183.533 180.875 179.4C179.008 175.267 178.075 170.533 178.075 165.2V85C178.075 78.6 181.742 75.4 189.075 75.4C196.408 75.4 200.075 78.6 200.075 85V163.6C200.075 167.333 201.008 170.6 202.875 173.4C204.608 176.6 208.208 178.2 213.675 178.2H238.675C244.008 178.2 247.542 176.6 249.275 173.4L249.075 173.6C251.208 170.4 252.275 167.067 252.275 163.6V85C252.275 78.6 255.942 75.4 263.275 75.4C270.608 75.4 274.275 78.6 274.275 85V165.2ZM356.364 127C359.697 127 363.231 127.8 366.964 129.4C370.831 130.867 374.431 132.733 377.764 135H377.564C381.031 137.533 383.697 140.8 385.564 144.8C387.431 148.8 388.364 153.6 388.364 159.2V165.2C388.364 176.133 384.764 184.2 377.564 189.4C374.097 192.067 370.564 194 366.964 195.2C363.364 196.4 359.831 197 356.364 197H322.364C318.897 197 315.364 196.4 311.764 195.2C308.164 194 304.631 192.067 301.164 189.4C293.964 184.333 290.364 176.267 290.364 165.2V162.8C290.364 157.067 294.031 154.267 301.364 154.4C308.831 154.4 312.564 157.2 312.564 162.8V165C312.564 168.2 313.564 171.2 315.564 174C317.564 176.8 321.097 178.2 326.164 178.2H352.564C357.631 178.2 361.164 176.8 363.164 174C365.164 171.2 366.164 168.2 366.164 165V159.4C366.164 157.667 365.897 156 365.364 154.4C364.964 152.8 364.231 151.4 363.164 150.2C362.097 148.867 360.697 147.8 358.964 147C357.231 146.2 355.097 145.8 352.564 145.8H323.364C316.564 145.8 309.431 143.4 301.964 138.6C294.897 134.067 291.364 126.267 291.364 115.2V108.4C291.364 103.067 292.297 98.4 294.164 94.4C296.031 90.2667 298.697 86.9333 302.164 84.4H301.964C305.297 82.1333 308.831 80.2667 312.564 78.8C316.297 77.3333 319.897 76.6 323.364 76.6H355.364C358.831 76.6 362.364 77.3333 365.964 78.8C369.697 80.2667 373.297 82.1333 376.764 84.4H376.564C380.031 86.9333 382.697 90.2667 384.564 94.4C386.431 98.4 387.364 103.067 387.364 108.4V110.2C387.364 113 386.431 115.067 384.564 116.4C382.697 117.6 379.964 118.267 376.364 118.4C369.031 118.533 365.364 115.8 365.364 110.2V108.6C365.364 105.267 364.297 102.267 362.164 99.6C360.164 96.8 356.697 95.4 351.764 95.4H326.964C322.031 95.4 318.497 96.8 316.364 99.6C314.364 102.267 313.364 105.267 313.364 108.6V113.4C313.364 116.867 314.364 120 316.364 122.8C318.497 125.6 322.031 127 326.964 127H356.364ZM429.211 189.2C429.211 195.467 425.544 198.6 418.211 198.6C410.744 198.6 407.011 195.467 407.011 189.2V45.8C407.011 39.5333 410.744 36.4 418.211 36.4C425.544 36.4 429.211 39.5333 429.211 45.8V189.2ZM471.402 188.6C471.402 195 467.735 198.2 460.402 198.2C452.935 198.2 449.202 195 449.202 188.6V85.4C449.202 79 452.935 75.8 460.402 75.8C467.735 75.8 471.402 79 471.402 85.4V188.6ZM475.602 50.6C475.602 54.8667 474.135 58.4667 471.202 61.4C468.268 64.3333 464.668 65.8 460.402 65.8C456.135 65.8 452.468 64.3333 449.402 61.4C446.468 58.4667 445.002 54.8667 445.002 50.6C445.002 46.2 446.468 42.5333 449.402 39.6C452.468 36.6667 456.135 35.2 460.402 35.2C464.668 35.2 468.268 36.6667 471.202 39.6C474.135 42.5333 475.602 46.2 475.602 50.6ZM513.192 188.6C513.192 195 509.526 198.2 502.192 198.2C494.859 198.2 491.192 195 491.192 188.6V108.2C491.192 102.733 492.059 98 493.792 94C495.526 90 498.259 86.7333 501.992 84.2C509.059 79.1333 516.126 76.6 523.192 76.6H555.392C562.192 76.6 569.259 79.1333 576.592 84.2C583.792 89.2667 587.392 97.2667 587.392 108.2V188.6C587.392 195 583.726 198.2 576.392 198.2C569.059 198.2 565.392 195 565.392 188.6V110C565.392 106.533 564.326 103.2 562.192 100L562.392 100.2C560.659 97 557.126 95.4 551.792 95.4H526.792C521.326 95.4 517.726 97 515.992 100.2C514.126 103 513.192 106.267 513.192 110V188.6ZM627.263 163.6V189C627.263 195.267 623.596 198.4 616.263 198.4C608.929 198.4 605.263 195.267 605.263 189V46.6C605.263 40.2 608.929 37 616.263 37C623.596 37 627.263 40.2 627.263 46.6V131.4C630.596 127.4 634.263 123.133 638.263 118.6C642.396 113.933 646.463 109.267 650.463 104.6C654.596 99.8 658.663 95.1333 662.663 90.6C666.663 85.9333 670.396 81.6 673.863 77.6V77.8C676.263 75 678.663 73.6 681.063 73.6C682.396 73.6 683.663 73.9333 684.863 74.6C686.196 75.1333 687.596 75.9333 689.063 77H688.863C692.063 79.6667 693.663 82.3333 693.663 85C693.663 85.9333 693.463 87 693.063 88.2C692.663 89.2667 691.996 90.2 691.062 91L627.263 163.6ZM694.063 183.6C694.996 185.333 695.463 187.133 695.463 189C695.463 192.467 693.463 195.067 689.463 196.8C686.796 198.4 684.396 199.2 682.263 199.2C680.796 199.2 679.396 198.667 678.063 197.6C676.729 196.667 675.663 195.467 674.863 194L654.863 155.4C653.663 153.4 653.063 151.4 653.063 149.4C653.063 146.067 654.796 143.267 658.263 141C659.196 140.333 660.129 139.733 661.063 139.2C662.129 138.667 663.263 138.267 664.463 138C665.929 137.733 667.329 138 668.663 138.8C669.996 139.6 671.129 140.667 672.063 142L694.063 183.6Z" fill="url(#paint0_radial_702_18)"/>
<ellipse cx="461.5" cy="49.5" rx="19.5" ry="18.5" fill="url(#paint1_radial_702_18)"/>
<path d="M469.668 51.9254C471.314 50.7273 471.314 48.2727 469.668 47.0746L460.516 40.4118C458.533 38.9684 455.75 40.3848 455.75 42.8372V56.1628C455.75 58.6153 458.533 60.0316 460.516 58.5882L469.668 51.9254Z" fill="#F7F8F8"/>
<path d="M467.896 50.3072C468.443 49.9077 468.443 49.0923 467.896 48.6928L459.34 42.4358C458.68 41.9526 457.75 42.4244 457.75 43.2429V55.7571C457.75 56.5755 458.68 57.0474 459.34 56.5642L467.896 50.3072Z" fill="url(#paint2_radial_702_18)"/>
<defs>
<radialGradient id="paint0_radial_702_18" cx="0" cy="0" r="1" gradientUnits="userSpaceOnUse" gradientTransform="translate(360) rotate(90) scale(268 720)">
<stop offset="0.172" stop-color="#187BCD"/>
<stop offset="0.628" stop-color="#03254C"/>
<stop offset="0.916"/>
</radialGradient>
<radialGradient id="paint1_radial_702_18" cx="0" cy="0" r="1" gradientUnits="userSpaceOnUse" gradientTransform="translate(461.5 31) rotate(90) scale(37 39)">
<stop stop-color="#187BCD"/>
<stop offset="0.574517" stop-color="#03254C"/>
<stop offset="1"/>
</radialGradient>
<radialGradient id="paint2_radial_702_18" cx="0" cy="0" r="1" gradientUnits="userSpaceOnUse" gradientTransform="translate(469 49.5) rotate(180) scale(15 19)">
<stop stop-color="#187BCD"/>
<stop offset="0.574517" stop-color="#03254C"/>
<stop offset="1"/>
</radialGradient>
</defs>
</svg>
